<?xml version="1.0" standalone="no"?>
<!DOCTYPE svg PUBLIC "-//W3C//DTD SVG 20010904//EN"
 "http://www.w3.org/TR/2001/REC-SVG-20010904/DTD/svg10.dtd">
<svg version="1.0" xmlns="http://www.w3.org/2000/svg"
 width="1000.000000pt" height="1000.000000pt" viewBox="0 0 1000.000000 1000.000000"
 preserveAspectRatio="xMidYMid meet">
<metadata>
Created by potrace 1.11, written by Peter Selinger 2001-2013
</metadata>
<g transform="translate(0.000000,1000.000000) scale(0.100000,-0.100000)"
fill="#000000" stroke="none">
<path d="M2185 9801 c-2 -1 -428 -3 -947 -4 -616 0 -952 -4 -968 -11 -39 -15
-78 -56 -90 -92 -14 -42 -6 -9405 8 -9449 19 -58 25 -66 68 -91 l44 -26 1943
2 c7130 5 7541 7 7572 23 33 17 56 40 74 75 13 24 14 687 8 6878 l-3 2592 -24
35 c-13 19 -38 43 -55 54 -29 17 -154 18 -3828 18 -2089 0 -3800 -2 -3802 -4z"/>
</g>
</svg>
